<svg width="24" height="25" viewBox="0 0 24 25" fill="none" xmlns="http://www.w3.org/2000/svg">
<path d="M19.6602 5.0993C17.0202 3.2993 13.7602 4.1393 12.0002 6.1993C10.2402 4.1393 6.98021 3.2893 4.34021 5.0993C2.94021 6.0593 2.06021 7.6793 2.00021 9.3893C1.86021 13.2693 5.30021 16.3793 10.5502 21.1493L10.6502 21.2393C11.4102 21.9293 12.5802 21.9293 13.3402 21.2293L13.4502 21.1293C18.7002 16.3693 22.1302 13.2593 22.0002 9.3793C21.9402 7.6793 21.0602 6.0593 19.6602 5.0993ZM12.1002 19.6593L12.0002 19.7593L11.9002 19.6593C7.14021 15.3493 4.00021 12.4993 4.00021 9.6093C4.00021 7.6093 5.50021 6.1093 7.50021 6.1093C9.04021 6.1093 10.5402 7.0993 11.0702 8.4693H12.9402C13.4602 7.0993 14.9602 6.1093 16.5002 6.1093C18.5002 6.1093 20.0002 7.6093 20.0002 9.6093C20.0002 12.4993 16.8602 15.3493 12.1002 19.6593Z" fill="#1E1E1E"/>
</svg>
