<svg width="24" height="25" viewBox="0 0 24 25" fill="none" xmlns="http://www.w3.org/2000/svg">
<path d="M15.5355 17.0256L12 13.4901L8.46447 17.0256C8.07556 17.4145 7.43916 17.4145 7.05025 17.0256C6.66134 16.6367 6.66134 16.0003 7.05025 15.6114L10.5858 12.0759L7.05025 8.54035C6.66134 8.15144 6.66134 7.51505 7.05025 7.12614C7.43916 6.73723 8.07556 6.73723 8.46447 7.12614L12 10.6617L15.5355 7.12614C15.9244 6.73723 16.5608 6.73723 16.9497 7.12614C17.3387 7.51505 17.3387 8.15144 16.9497 8.54035L13.4142 12.0759L16.9497 15.6114C17.3387 16.0003 17.3387 16.6367 16.9497 17.0256C16.5608 17.4145 15.9244 17.4145 15.5355 17.0256Z" fill="black"/>
</svg>
