<svg width="25" height="25" viewBox="0 0 25 25" fill="none" xmlns="http://www.w3.org/2000/svg">
<path d="M12.5735 3.6582C7.94155 3.6582 4.18555 7.4262 4.18555 12.0582C4.18555 16.6902 7.94155 20.4582 12.5735 20.4582C17.2175 20.4582 20.9855 16.6902 20.9855 12.0582C20.9855 7.4262 17.2175 3.6582 12.5735 3.6582ZM7.78555 9.6582C7.78555 8.9982 8.32555 8.4582 8.98555 8.4582C9.64555 8.4582 10.1855 8.9982 10.1855 9.6582C10.1855 10.3182 9.64555 10.8582 8.98555 10.8582C8.32555 10.8582 7.78555 10.3182 7.78555 9.6582ZM16.9055 14.1102C16.1495 15.7302 14.5055 16.8582 12.5855 16.8582C10.6655 16.8582 9.02155 15.7302 8.26555 14.1102C8.07355 13.7142 8.38555 13.2582 8.81755 13.2582H16.3535C16.7855 13.2582 17.0975 13.7142 16.9055 14.1102ZM16.1855 10.8582C15.5255 10.8582 14.9855 10.3182 14.9855 9.6582C14.9855 8.9982 15.5255 8.4582 16.1855 8.4582C16.8455 8.4582 17.3855 8.9982 17.3855 9.6582C17.3855 10.3182 16.8455 10.8582 16.1855 10.8582Z" fill="#4A6AFE"/>
</svg>
