<svg width="25" height="25" viewBox="0 0 25 25" fill="none" xmlns="http://www.w3.org/2000/svg">
<path d="M12.5779 4.52832C8.16194 4.52832 4.58594 8.11232 4.58594 12.5283C4.58594 16.9443 8.16194 20.5283 12.5779 20.5283C17.0019 20.5283 20.5859 16.9443 20.5859 12.5283C20.5859 8.11232 17.0019 4.52832 12.5779 4.52832ZM12.5859 18.9283C9.04994 18.9283 6.18594 16.0643 6.18594 12.5283C6.18594 8.99232 9.04994 6.12832 12.5859 6.12832C16.1219 6.12832 18.9859 8.99232 18.9859 12.5283C18.9859 16.0643 16.1219 18.9283 12.5859 18.9283ZM15.3859 11.7283C16.0499 11.7283 16.5859 11.1923 16.5859 10.5283C16.5859 9.86432 16.0499 9.32832 15.3859 9.32832C14.7219 9.32832 14.1859 9.86432 14.1859 10.5283C14.1859 11.1923 14.7219 11.7283 15.3859 11.7283ZM9.78594 11.7283C10.4499 11.7283 10.9859 11.1923 10.9859 10.5283C10.9859 9.86432 10.4499 9.32832 9.78594 9.32832C9.12194 9.32832 8.58594 9.86432 8.58594 10.5283C8.58594 11.1923 9.12194 11.7283 9.78594 11.7283ZM12.5859 16.9283C14.2099 16.9283 15.6259 16.0403 16.3859 14.7283C16.5379 14.4643 16.3459 14.1283 16.0339 14.1283H9.13794C8.83394 14.1283 8.63394 14.4643 8.78594 14.7283C9.54594 16.0403 10.9619 16.9283 12.5859 16.9283Z" fill="#6C6C6C"/>
</svg>
