<svg width="101" height="101" viewBox="0 0 101 101" fill="none" xmlns="http://www.w3.org/2000/svg">
<path d="M100.5 50.0659C100.5 77.6802 78.1142 100.066 50.5 100.066C22.8858 100.066 0.5 77.6802 0.5 50.0659C0.5 22.4517 22.8858 0.065918 50.5 0.065918C78.1142 0.065918 100.5 22.4517 100.5 50.0659Z" fill="url(#paint0_radial_388_6976)"/>
<path d="M43.0033 43.0047C42.9896 40.3157 40.7986 38.1468 38.1095 38.1605C35.4205 38.1742 33.2516 40.3652 33.2653 43.0542L33.2736 44.6772C33.2872 47.3663 35.4782 49.5351 38.1673 49.5215C40.8564 49.5078 43.0252 47.3168 43.0115 44.6277L43.0033 43.0047Z" fill="#1B1B1B"/>
<path d="M67.7259 42.9803C67.7123 40.2912 65.5213 38.1224 62.8322 38.1361C60.1431 38.1498 57.9743 40.3408 57.988 43.0298L57.9962 44.6528C58.0099 47.3419 60.2009 49.5107 62.89 49.4971C65.579 49.4834 67.7479 47.2924 67.7342 44.6033L67.7259 42.9803Z" fill="#1B1B1B"/>
<path fill-rule="evenodd" clip-rule="evenodd" d="M58.7087 62.1921C58.7091 62.1669 58.7113 62.0347 58.5322 61.7611C58.3346 61.4594 57.9354 61.0256 57.2243 60.5661C55.7829 59.6345 53.4818 58.8785 50.6736 58.8359C47.8654 58.7933 45.5424 59.4793 44.0735 60.3667C43.3488 60.8045 42.9366 61.226 42.73 61.5216C42.5426 61.7895 42.5408 61.9209 42.5404 61.9461C42.54 61.9714 42.5379 62.1044 42.717 62.378C42.9146 62.6797 43.3138 63.1134 44.0249 63.573C45.4662 64.5045 47.7674 65.2606 50.5756 65.3032C53.3837 65.3458 55.7068 64.6598 57.1757 63.7724C57.9004 63.3346 58.3126 62.9131 58.5192 62.6175C58.7065 62.3495 58.7084 62.2173 58.7087 62.1921ZM50.502 70.1537C57.6456 70.262 63.4915 66.7304 63.5592 62.2656C63.6269 57.8009 57.8907 54.0937 50.7471 53.9854C43.6035 53.8771 37.7576 57.4087 37.6899 61.8735C37.6223 66.3382 43.3584 70.0454 50.502 70.1537Z" fill="black"/>
<defs>
<radialGradient id="paint0_radial_388_6976" cx="0" cy="0" r="1" gradientUnits="userSpaceOnUse" gradientTransform="translate(50.5 50.0659) rotate(-143.326) scale(48.8336)">
<stop stop-color="#FFFACF"/>
<stop offset="0.734375" stop-color="#FFF27E"/>
</radialGradient>
</defs>
</svg>
