<svg width="25" height="25" viewBox="0 0 25 25" fill="none" xmlns="http://www.w3.org/2000/svg">
<path d="M20.2462 5.59905C17.6062 3.79905 14.3462 4.63905 12.5862 6.69905C10.8262 4.63905 7.56615 3.78905 4.92615 5.59905C3.52615 6.55905 2.64615 8.17905 2.58615 9.88905C2.44615 13.7691 5.88615 16.8791 11.1362 21.6491L11.2362 21.7391C11.9962 22.4291 13.1662 22.4291 13.9262 21.7291L14.0362 21.6291C19.2862 16.8691 22.7162 13.7591 22.5862 9.87905C22.5262 8.17905 21.6462 6.55905 20.2462 5.59905ZM12.6862 20.1591L12.5862 20.2591L12.4862 20.1591C7.72615 15.8491 4.58615 12.9991 4.58615 10.1091C4.58615 8.10905 6.08615 6.60905 8.08615 6.60905C9.62615 6.60905 11.1262 7.59905 11.6562 8.96905H13.5262C14.0462 7.59905 15.5462 6.60905 17.0862 6.60905C19.0862 6.60905 20.5862 8.10905 20.5862 10.1091C20.5862 12.9991 17.4462 15.8491 12.6862 20.1591Z" fill="#1E1E1E"/>
</svg>
