<svg width="141" height="196" viewBox="0 0 141 196" fill="none" xmlns="http://www.w3.org/2000/svg">
<g opacity="0.9">
<path d="M75.1699 38.3711C75.1699 59.0818 58.3806 75.8711 37.6699 75.8711C16.9592 75.8711 0.169922 59.0818 0.169922 38.3711C0.169922 17.6604 16.9592 0.871094 37.6699 0.871094C58.3806 0.871094 75.1699 17.6604 75.1699 38.3711Z" fill="url(#paint0_radial_251_6220)"/>
<path d="M47.7933 34.5975C47.8535 33.2368 46.7993 32.085 45.4387 32.0247C44.078 31.9645 42.9261 33.0187 42.8659 34.3793L42.8295 35.2006C42.7693 36.5612 43.8235 37.7131 45.1842 37.7733C46.5448 37.8336 47.6967 36.7794 47.7569 35.4187L47.7933 34.5975Z" fill="#1B1B1B"/>
<path d="M58.2581 34.5975C58.3184 33.2368 57.2642 32.085 55.9035 32.0247C54.5428 31.9645 53.391 33.0187 53.3307 34.3793L53.2944 35.2006C53.2341 36.5612 54.2883 37.7131 55.649 37.7733C57.0097 37.8336 58.1615 36.7794 58.2218 35.4187L58.2581 34.5975Z" fill="#1B1B1B"/>
<path fill-rule="evenodd" clip-rule="evenodd" d="M53.7988 43.668C53.7988 43.6582 53.7989 43.6071 53.7281 43.5024C53.6499 43.387 53.4931 43.2217 53.2156 43.0483C52.6531 42.6967 51.7593 42.418 50.6738 42.418C49.5883 42.418 48.6945 42.6967 48.132 43.0483C47.8545 43.2217 47.6977 43.387 47.6196 43.5024C47.5488 43.6071 47.5488 43.6579 47.5488 43.6676C47.5488 43.6774 47.5488 43.7288 47.6196 43.8335C47.6977 43.9489 47.8545 44.1142 48.132 44.2877C48.6945 44.6392 49.5883 44.918 50.6738 44.918C51.7593 44.918 52.6531 44.6392 53.2156 44.2877C53.4931 44.1142 53.6499 43.9489 53.7281 43.8335C53.7989 43.7288 53.7988 43.6777 53.7988 43.668ZM50.6738 46.793C53.4353 46.793 55.6738 45.3939 55.6738 43.668C55.6738 41.9421 53.4353 40.543 50.6738 40.543C47.9124 40.543 45.6738 41.9421 45.6738 43.668C45.6738 45.3939 47.9124 46.793 50.6738 46.793Z" fill="black"/>
</g>
<g opacity="0.9">
<path d="M140.17 103.371C140.17 124.082 123.381 140.871 102.67 140.871C81.9592 140.871 65.1699 124.082 65.1699 103.371C65.1699 82.6604 81.9592 65.8711 102.67 65.8711C123.381 65.8711 140.17 82.6604 140.17 103.371Z" fill="url(#paint1_radial_251_6220)"/>
<path d="M113.59 110.346C113.65 108.985 112.596 107.833 111.236 107.773C109.875 107.713 108.723 108.767 108.663 110.127L108.626 110.949C108.566 112.309 109.62 113.461 110.981 113.521C112.342 113.582 113.494 112.527 113.554 111.167L113.59 110.346Z" fill="#1B1B1B"/>
<path d="M124.055 110.346C124.115 108.985 123.061 107.833 121.7 107.773C120.34 107.713 119.188 108.767 119.128 110.127L119.091 110.949C119.031 112.309 120.085 113.461 121.446 113.521C122.807 113.582 123.958 112.527 124.019 111.167L124.055 110.346Z" fill="#1B1B1B"/>
<path fill-rule="evenodd" clip-rule="evenodd" d="M119.596 119.416C119.596 119.406 119.596 119.355 119.525 119.25C119.447 119.135 119.29 118.97 119.012 118.796C118.45 118.445 117.556 118.166 116.471 118.166C115.385 118.166 114.491 118.445 113.929 118.796C113.651 118.97 113.495 119.135 113.416 119.25C113.346 119.355 113.346 119.406 113.346 119.416C113.346 119.425 113.346 119.477 113.416 119.582C113.495 119.697 113.651 119.862 113.929 120.036C114.491 120.387 115.385 120.666 116.471 120.666C117.556 120.666 118.45 120.387 119.012 120.036C119.29 119.862 119.447 119.697 119.525 119.582C119.596 119.477 119.596 119.426 119.596 119.416ZM116.471 122.541C119.232 122.541 121.471 121.142 121.471 119.416C121.471 117.69 119.232 116.291 116.471 116.291C113.709 116.291 111.471 117.69 111.471 119.416C111.471 121.142 113.709 122.541 116.471 122.541Z" fill="black"/>
</g>
<g opacity="0.9">
<path d="M140.17 38.3711C140.17 59.0818 123.381 75.8711 102.67 75.8711C81.9592 75.8711 65.1699 59.0818 65.1699 38.3711C65.1699 17.6604 81.9592 0.871094 102.67 0.871094C123.381 0.871094 140.17 17.6604 140.17 38.3711Z" fill="url(#paint2_radial_251_6220)"/>
<path d="M115.55 26.0749C115.221 24.7531 113.884 23.948 112.562 24.2766C111.24 24.6052 110.435 25.943 110.763 27.2648L110.962 28.0625C111.29 29.3843 112.628 30.1894 113.95 29.8609C115.272 29.5323 116.077 28.1944 115.748 26.8727L115.55 26.0749Z" fill="#1B1B1B"/>
<path d="M125.583 23.1032C125.255 21.7815 123.917 20.9763 122.595 21.3049C121.273 21.6335 120.468 22.9714 120.797 24.2931L120.995 25.0909C121.324 26.4126 122.661 27.2178 123.983 26.8892C125.305 26.5606 126.11 25.2227 125.782 23.901L125.583 23.1032Z" fill="#1B1B1B"/>
<path fill-rule="evenodd" clip-rule="evenodd" d="M123.883 33.0673C123.88 33.058 123.866 33.009 123.768 32.9287C123.66 32.8402 123.463 32.7262 123.148 32.6387C122.509 32.4614 121.573 32.4479 120.532 32.7561C119.491 33.0643 118.713 33.5853 118.273 34.0821C118.057 34.3272 117.953 34.5303 117.911 34.6631C117.873 34.7836 117.887 34.8323 117.89 34.8416C117.893 34.851 117.907 34.9003 118.005 34.9806C118.113 35.0691 118.31 35.183 118.625 35.2705C119.265 35.4479 120.201 35.4614 121.242 35.1532C122.282 34.845 123.06 34.324 123.5 33.8271C123.717 33.582 123.82 33.379 123.862 33.2461C123.9 33.1257 123.886 33.0767 123.883 33.0673ZM121.774 36.951C124.422 36.167 126.171 34.1898 125.681 32.535C125.191 30.8801 122.647 30.1742 119.999 30.9583C117.352 31.7423 115.602 33.7195 116.092 35.3743C116.582 37.0292 119.126 37.7351 121.774 36.951Z" fill="black"/>
</g>
<g opacity="0.9">
<path d="M0.169925 103.371C0.169927 82.6604 16.9593 65.8711 37.6699 65.8711C58.3806 65.8711 75.1699 82.6604 75.1699 103.371C75.1699 124.082 58.3806 140.871 37.6699 140.871C16.9592 140.871 0.169923 124.082 0.169925 103.371Z" fill="url(#paint3_radial_251_6220)"/>
<path d="M24.6629 93.2966C24.9914 91.9748 26.3293 91.1697 27.6511 91.4983C28.9728 91.8268 29.778 93.1647 29.4494 94.4865L29.2511 95.2842C28.9225 96.606 27.5846 97.4111 26.2629 97.0825C24.9411 96.754 24.136 95.4161 24.4646 94.0943L24.6629 93.2966Z" fill="#1B1B1B"/>
<path d="M14.6277 90.3249C14.9563 89.0031 16.2942 88.198 17.6159 88.5266C18.9377 88.8552 19.7428 90.193 19.4142 91.5148L19.2159 92.3125C18.8873 93.6343 17.5495 94.4394 16.2277 94.1109C14.906 93.7823 14.1008 92.4444 14.4294 91.1227L14.6277 90.3249Z" fill="#1B1B1B"/>
<path fill-rule="evenodd" clip-rule="evenodd" d="M16.328 100.289C16.3307 100.28 16.3452 100.231 16.4428 100.15C16.5505 100.062 16.7478 99.9479 17.0631 99.8604C17.7023 99.683 18.6384 99.6696 19.6793 99.9778C20.7201 100.286 21.498 100.807 21.9375 101.304C22.1543 101.549 22.2577 101.752 22.2999 101.885C22.3381 102.005 22.3236 102.054 22.3208 102.063C22.3181 102.073 22.3035 102.122 22.2059 102.202C22.0982 102.291 21.9009 102.405 21.5856 102.492C20.9464 102.67 20.0103 102.683 18.9694 102.375C17.9286 102.067 17.1507 101.546 16.7112 101.049C16.4944 100.804 16.3909 100.601 16.3488 100.468C16.3106 100.347 16.3252 100.298 16.328 100.289ZM18.437 104.173C15.7893 103.389 14.0401 101.412 14.5301 99.7566C15.0202 98.1018 17.5639 97.3959 20.2116 98.1799C22.8594 98.964 24.6086 100.941 24.1186 102.596C23.6285 104.251 21.0848 104.957 18.437 104.173Z" fill="black"/>
</g>
<path d="M42.7219 178.083C42.6379 179.763 42.5539 181.415 42.3859 183.011C42.1619 185.251 40.7339 186.371 38.7739 186.371C36.5059 186.371 34.9659 185.083 35.3019 182.563C35.9739 176.543 35.9739 170.495 35.3299 164.727C34.9659 161.955 36.5059 160.639 38.7739 160.639C40.7339 160.639 42.1619 161.759 42.3859 164.055C42.5259 165.343 42.6099 166.687 42.6939 168.031L43.2259 167.975C44.5139 167.751 45.2699 169.291 45.2699 173.015C45.2699 176.767 44.5139 178.279 43.2259 178.139L42.7219 178.083ZM25.9779 167.023C26.7059 166.771 27.4059 166.771 28.1339 167.023V165.511C28.1339 162.683 28.8619 161.535 31.4099 161.535C33.5659 161.535 34.5179 162.851 34.7699 166.295C35.1339 170.411 35.1899 175.647 34.7699 179.427C34.4899 182.367 33.3699 184.103 31.6899 184.495C28.4419 185.335 25.6699 185.335 22.4219 184.495C20.6859 184.103 19.5659 182.367 19.2579 179.427C18.8939 175.647 18.9219 170.411 19.2579 166.295C19.5939 162.711 20.4339 161.535 22.9259 161.535C25.4179 161.535 25.9779 162.823 25.9779 165.511V167.023ZM24.8299 174.527C26.2859 174.527 27.6299 174.779 28.8619 175.451C29.2819 175.675 29.7859 174.835 29.1699 174.471C27.9099 173.743 26.3699 173.323 24.9979 173.519C24.4099 173.575 24.3819 174.527 24.8299 174.527ZM49.6994 168.003C47.6554 168.003 45.8354 167.387 45.5834 165.427C45.3034 163.103 46.5074 162.011 49.7834 161.591C53.2834 161.143 58.4914 161.087 63.7554 161.423C67.0314 161.619 68.7394 163.299 68.7394 165.903C68.7394 168.759 67.3114 169.907 65.3794 170.271C63.3634 170.635 60.8994 170.187 60.1434 168.927C59.4714 167.751 59.5834 166.267 60.6474 165.231C61.0954 164.755 60.7314 164.363 60.3114 164.671C57.3154 166.911 53.8994 168.003 49.6994 168.003ZM44.6034 172.595C44.6034 171.475 45.5834 170.495 47.1794 170.607C53.1714 171.055 60.8714 171.027 67.0874 170.607C68.7114 170.523 69.6914 171.475 69.6914 172.595C69.6914 173.911 68.7114 174.555 67.0594 174.667C60.8714 175.171 53.1714 175.171 47.1794 174.667C45.5834 174.555 44.6034 173.911 44.6034 172.595ZM45.3034 183.543C45.3034 181.779 46.7034 180.827 48.6634 180.631C50.3994 180.463 51.9954 180.267 53.7594 179.651C54.1514 179.511 53.9554 178.811 53.5634 178.923C51.9394 179.511 50.1194 179.875 48.3834 179.959C46.3394 180.071 45.5554 179.007 45.5554 177.635C45.5554 176.375 46.3394 175.479 47.8514 175.563C53.5914 175.983 60.7034 175.983 66.4434 175.563C67.9834 175.479 68.7114 176.207 68.7114 177.355C68.7114 178.363 68.0114 179.175 67.0034 179.203C63.8954 179.259 60.8994 180.211 58.9394 181.667C58.5754 181.919 58.7994 182.507 59.2474 182.255C60.9834 181.135 63.0834 180.155 65.3514 180.127C67.5914 180.043 68.9354 181.191 68.9354 182.983C68.9354 184.859 67.5914 185.671 65.0714 185.839C59.6394 186.231 53.5074 186.175 48.3834 185.811C46.4514 185.699 45.3034 185.111 45.3034 183.543ZM93.1329 178.083C93.0489 179.763 92.9649 181.415 92.7969 183.011C92.5729 185.251 91.1449 186.371 89.1849 186.371C86.9169 186.371 85.3769 185.083 85.7129 182.563C86.3849 176.543 86.3849 170.495 85.7409 164.727C85.3769 161.955 86.9169 160.639 89.1849 160.639C91.1449 160.639 92.5729 161.759 92.7969 164.055C92.9369 165.343 93.0209 166.687 93.1049 168.031L93.6369 167.975C94.9249 167.751 95.6809 169.291 95.6809 173.015C95.6809 176.767 94.9249 178.279 93.6369 178.139L93.1329 178.083ZM76.3889 167.023C77.1169 166.771 77.8169 166.771 78.5449 167.023V165.511C78.5449 162.683 79.2729 161.535 81.8209 161.535C83.9769 161.535 84.9289 162.851 85.1809 166.295C85.5449 170.411 85.6009 175.647 85.1809 179.427C84.9009 182.367 83.7809 184.103 82.1009 184.495C78.8529 185.335 76.0809 185.335 72.8329 184.495C71.0969 184.103 69.9769 182.367 69.6689 179.427C69.3049 175.647 69.3329 170.411 69.6689 166.295C70.0049 162.711 70.8449 161.535 73.3369 161.535C75.8289 161.535 76.3889 162.823 76.3889 165.511V167.023ZM75.2409 174.527C76.6969 174.527 78.0409 174.779 79.2729 175.451C79.6929 175.675 80.1969 174.835 79.5809 174.471C78.3209 173.743 76.7809 173.323 75.4089 173.519C74.8209 173.575 74.7929 174.527 75.2409 174.527ZM100.11 168.003C98.0663 168.003 96.2463 167.387 95.9943 165.427C95.7143 163.103 96.9183 162.011 100.194 161.591C103.694 161.143 108.902 161.087 114.166 161.423C117.442 161.619 119.15 163.299 119.15 165.903C119.15 168.759 117.722 169.907 115.79 170.271C113.774 170.635 111.31 170.187 110.554 168.927C109.882 167.751 109.994 166.267 111.058 165.231C111.506 164.755 111.142 164.363 110.722 164.671C107.726 166.911 104.31 168.003 100.11 168.003ZM95.0143 172.595C95.0143 171.475 95.9943 170.495 97.5903 170.607C103.582 171.055 111.282 171.027 117.498 170.607C119.122 170.523 120.102 171.475 120.102 172.595C120.102 173.911 119.122 174.555 117.47 174.667C111.282 175.171 103.582 175.171 97.5903 174.667C95.9943 174.555 95.0143 173.911 95.0143 172.595ZM95.7143 183.543C95.7143 181.779 97.1143 180.827 99.0743 180.631C100.81 180.463 102.406 180.267 104.17 179.651C104.562 179.511 104.366 178.811 103.974 178.923C102.35 179.511 100.53 179.875 98.7943 179.959C96.7503 180.071 95.9663 179.007 95.9663 177.635C95.9663 176.375 96.7503 175.479 98.2623 175.563C104.002 175.983 111.114 175.983 116.854 175.563C118.394 175.479 119.122 176.207 119.122 177.355C119.122 178.363 118.422 179.175 117.414 179.203C114.306 179.259 111.31 180.211 109.35 181.667C108.986 181.919 109.21 182.507 109.658 182.255C111.394 181.135 113.494 180.155 115.762 180.127C118.002 180.043 119.346 181.191 119.346 182.983C119.346 184.859 118.002 185.671 115.482 185.839C110.05 186.231 103.918 186.175 98.7943 185.811C96.8623 185.699 95.7143 185.111 95.7143 183.543Z" fill="#4A6AFE"/>
<defs>
<radialGradient id="paint0_radial_251_6220" cx="0" cy="0" r="1" gradientUnits="userSpaceOnUse" gradientTransform="translate(44.5449 47.1211) rotate(-139.808) scale(47.4547)">
<stop stop-color="white"/>
<stop offset="1" stop-color="#FFF27E"/>
</radialGradient>
<radialGradient id="paint1_radial_251_6220" cx="0" cy="0" r="1" gradientUnits="userSpaceOnUse" gradientTransform="translate(109.545 112.121) rotate(-139.808) scale(47.4547)">
<stop stop-color="white"/>
<stop offset="1" stop-color="#FFF27E"/>
</radialGradient>
<radialGradient id="paint2_radial_251_6220" cx="0" cy="0" r="1" gradientUnits="userSpaceOnUse" gradientTransform="translate(110.795 25.2461) rotate(129.629) scale(51.9352)">
<stop stop-color="white"/>
<stop offset="1" stop-color="#7EB2FF"/>
</radialGradient>
<radialGradient id="paint3_radial_251_6220" cx="0" cy="0" r="1" gradientUnits="userSpaceOnUse" gradientTransform="translate(21.5639 96.9247) rotate(45) scale(52.5701)">
<stop stop-color="white"/>
<stop offset="1" stop-color="#7EB2FF"/>
</radialGradient>
</defs>
</svg>
