<svg width="113" height="21" viewBox="0 0 113 21" fill="none" xmlns="http://www.w3.org/2000/svg">
<path d="M36 10.8711C36 16.3939 31.5228 20.8711 26 20.8711C20.4772 20.8711 16 16.3939 16 10.8711C16 5.34825 20.4772 0.871094 26 0.871094C31.5228 0.871094 36 5.34825 36 10.8711Z" fill="url(#paint0_radial_251_6219)"/>
<path d="M29.434 7.59231C29.3464 7.23984 28.9897 7.02513 28.6372 7.11275C28.2847 7.20037 28.07 7.55714 28.1576 7.90961L28.2105 8.12234C28.2981 8.47481 28.6549 8.68952 29.0074 8.6019C29.3598 8.51427 29.5745 8.15751 29.4869 7.80504L29.434 7.59231Z" fill="#1B1B1B"/>
<path d="M32.1098 6.80031C32.0222 6.44784 31.6654 6.23314 31.313 6.32076C30.9605 6.40838 30.7458 6.76515 30.8334 7.11762L30.8863 7.33035C30.9739 7.68282 31.3307 7.89752 31.6832 7.8099C32.0356 7.72228 32.2503 7.36552 32.1627 7.01305L32.1098 6.80031Z" fill="#1B1B1B"/>
<path fill-rule="evenodd" clip-rule="evenodd" d="M31.6559 9.45728C31.6552 9.45479 31.6513 9.44171 31.6253 9.42032C31.5966 9.39671 31.5439 9.36632 31.4599 9.34299C31.2894 9.29568 31.0398 9.29209 30.7622 9.37428C30.4847 9.45647 30.2772 9.59541 30.16 9.72789C30.1022 9.79325 30.0746 9.84739 30.0634 9.88283C30.0532 9.91495 30.0571 9.92793 30.0578 9.93042C30.0585 9.93292 30.0624 9.94607 30.0885 9.96747C30.1172 9.99107 30.1698 10.0215 30.2539 10.0448C30.4243 10.0921 30.674 10.0957 30.9515 10.0135C31.2291 9.93132 31.4365 9.79238 31.5537 9.6599C31.6115 9.59453 31.6391 9.54039 31.6503 9.50496C31.6605 9.47284 31.6566 9.45977 31.6559 9.45728ZM31.0935 10.4929C31.7996 10.2838 32.266 9.75661 32.1353 9.31531C32.0046 8.87402 31.3263 8.68577 30.6203 8.89486C29.9142 9.10394 29.4477 9.63118 29.5784 10.0725C29.7091 10.5138 30.3874 10.702 31.0935 10.4929Z" fill="black"/>
<path d="M20 10.8711C20 16.3939 15.5228 20.8711 10 20.8711C4.47715 20.8711 0 16.3939 0 10.8711C0 5.34825 4.47715 0.871094 10 0.871094C15.5228 0.871094 20 5.34825 20 10.8711Z" fill="url(#paint1_radial_251_6219)"/>
<path d="M12.6994 9.86499C12.7155 9.50215 12.4344 9.19499 12.0715 9.17892C11.7087 9.16286 11.4015 9.44398 11.3855 9.80682L11.3758 10.0258C11.3597 10.3887 11.6408 10.6958 12.0037 10.7119C12.3665 10.7279 12.6737 10.4468 12.6897 10.084L12.6994 9.86499Z" fill="#1B1B1B"/>
<path d="M15.4904 9.86499C15.5065 9.50215 15.2254 9.19499 14.8625 9.17892C14.4997 9.16286 14.1925 9.44398 14.1765 9.80682L14.1668 10.0258C14.1507 10.3887 14.4318 10.6958 14.7947 10.7119C15.1575 10.7279 15.4647 10.4468 15.4808 10.084L15.4904 9.86499Z" fill="#1B1B1B"/>
<path fill-rule="evenodd" clip-rule="evenodd" d="M14.3014 12.2835C14.3014 12.2809 14.3015 12.2673 14.2826 12.2394C14.2617 12.2086 14.2199 12.1645 14.1459 12.1183C13.9959 12.0245 13.7576 11.9502 13.4681 11.9502C13.1786 11.9502 12.9403 12.0245 12.7903 12.1183C12.7163 12.1645 12.6745 12.2086 12.6536 12.2394C12.6347 12.2673 12.6348 12.2808 12.6348 12.2834C12.6348 12.286 12.6347 12.2998 12.6536 12.3277C12.6745 12.3585 12.7163 12.4025 12.7903 12.4488C12.9403 12.5425 13.1786 12.6169 13.4681 12.6169C13.7576 12.6169 13.9959 12.5425 14.1459 12.4488C14.2199 12.4025 14.2617 12.3585 14.2826 12.3277C14.3015 12.2998 14.3014 12.2861 14.3014 12.2835ZM13.4681 13.1169C14.2045 13.1169 14.8014 12.7438 14.8014 12.2835C14.8014 11.8233 14.2045 11.4502 13.4681 11.4502C12.7317 11.4502 12.1348 11.8233 12.1348 12.2835C12.1348 12.7438 12.7317 13.1169 13.4681 13.1169Z" fill="black"/>
<path d="M56.9476 14.1407C56.8876 15.3407 56.8276 16.5207 56.7076 17.6607C56.5476 19.2607 55.5276 20.0607 54.1276 20.0607C52.5076 20.0607 51.4076 19.1407 51.6476 17.3407C52.1276 13.0407 52.1276 8.72066 51.6676 4.60066C51.4076 2.62066 52.5076 1.68066 54.1276 1.68066C55.5276 1.68066 56.5476 2.48066 56.7076 4.12066C56.8076 5.04066 56.8676 6.00066 56.9276 6.96066L57.3076 6.92066C58.2276 6.76066 58.7676 7.86066 58.7676 10.5207C58.7676 13.2007 58.2276 14.2807 57.3076 14.1807L56.9476 14.1407ZM44.9876 6.24066C45.5076 6.06066 46.0076 6.06066 46.5276 6.24066V5.16067C46.5276 3.14066 47.0476 2.32066 48.8676 2.32066C50.4076 2.32066 51.0876 3.26066 51.2676 5.72066C51.5276 8.66066 51.5676 12.4007 51.2676 15.1007C51.0676 17.2007 50.2676 18.4407 49.0676 18.7207C46.7476 19.3207 44.7676 19.3207 42.4476 18.7207C41.2076 18.4407 40.4076 17.2007 40.1876 15.1007C39.9276 12.4007 39.9476 8.66066 40.1876 5.72066C40.4276 3.16066 41.0276 2.32066 42.8076 2.32066C44.5876 2.32066 44.9876 3.24066 44.9876 5.16067V6.24066ZM44.1676 11.6007C45.2076 11.6007 46.1676 11.7807 47.0476 12.2607C47.3476 12.4207 47.7076 11.8207 47.2676 11.5607C46.3676 11.0407 45.2676 10.7407 44.2876 10.8807C43.8676 10.9207 43.8476 11.6007 44.1676 11.6007Z" fill="#4A6AFE"/>
<path d="M61.9315 6.94066C60.4715 6.94066 59.1715 6.50066 58.9915 5.10066C58.7915 3.44066 59.6515 2.66066 61.9915 2.36066C64.4915 2.04066 68.2115 2.00066 71.9715 2.24066C74.3115 2.38066 75.5315 3.58066 75.5315 5.44066C75.5315 7.48066 74.5115 8.30066 73.1315 8.56066C71.6915 8.82066 69.9315 8.50066 69.3915 7.60066C68.9115 6.76066 68.9915 5.70066 69.7515 4.96066C70.0715 4.62066 69.8115 4.34066 69.5115 4.56066C67.3715 6.16066 64.9315 6.94066 61.9315 6.94066ZM58.2915 10.2207C58.2915 9.42067 58.9915 8.72066 60.1315 8.80066C64.4115 9.12066 69.9115 9.10066 74.3515 8.80066C75.5115 8.74066 76.2115 9.42067 76.2115 10.2207C76.2115 11.1607 75.5115 11.6207 74.3315 11.7007C69.9115 12.0607 64.4115 12.0607 60.1315 11.7007C58.9915 11.6207 58.2915 11.1607 58.2915 10.2207ZM58.7915 18.0407C58.7915 16.7807 59.7915 16.1007 61.1915 15.9607C62.4315 15.8407 63.5715 15.7007 64.8315 15.2607C65.1115 15.1607 64.9715 14.6607 64.6915 14.7407C63.5315 15.1607 62.2315 15.4207 60.9915 15.4807C59.5315 15.5607 58.9715 14.8007 58.9715 13.8207C58.9715 12.9207 59.5315 12.2807 60.6115 12.3407C64.7115 12.6407 69.7915 12.6407 73.8915 12.3407C74.9915 12.2807 75.5115 12.8007 75.5115 13.6207C75.5115 14.3407 75.0115 14.9207 74.2915 14.9407C72.0715 14.9807 69.9315 15.6607 68.5315 16.7007C68.2715 16.8807 68.4315 17.3007 68.7515 17.1207C69.9915 16.3207 71.4915 15.6207 73.1115 15.6007C74.7115 15.5407 75.6715 16.3607 75.6715 17.6407C75.6715 18.9807 74.7115 19.5607 72.9115 19.6807C69.0315 19.9607 64.6515 19.9207 60.9915 19.6607C59.6115 19.5807 58.7915 19.1607 58.7915 18.0407Z" fill="#4A6AFE"/>
<path d="M92.9554 14.1407C92.8954 15.3407 92.8354 16.5207 92.7154 17.6607C92.5554 19.2607 91.5354 20.0607 90.1354 20.0607C88.5154 20.0607 87.4154 19.1407 87.6554 17.3407C88.1354 13.0407 88.1354 8.72066 87.6754 4.60066C87.4154 2.62066 88.5154 1.68066 90.1354 1.68066C91.5354 1.68066 92.5554 2.48066 92.7154 4.12066C92.8154 5.04066 92.8754 6.00066 92.9354 6.96066L93.3154 6.92066C94.2354 6.76066 94.7754 7.86066 94.7754 10.5207C94.7754 13.2007 94.2354 14.2807 93.3154 14.1807L92.9554 14.1407ZM80.9954 6.24066C81.5154 6.06066 82.0154 6.06066 82.5354 6.24066V5.16067C82.5354 3.14066 83.0554 2.32066 84.8754 2.32066C86.4154 2.32066 87.0954 3.26066 87.2754 5.72066C87.5354 8.66066 87.5754 12.4007 87.2754 15.1007C87.0754 17.2007 86.2754 18.4407 85.0754 18.7207C82.7554 19.3207 80.7754 19.3207 78.4554 18.7207C77.2154 18.4407 76.4154 17.2007 76.1954 15.1007C75.9354 12.4007 75.9554 8.66066 76.1954 5.72066C76.4354 3.16066 77.0354 2.32066 78.8154 2.32066C80.5954 2.32066 80.9954 3.24066 80.9954 5.16067V6.24066ZM80.1754 11.6007C81.2154 11.6007 82.1754 11.7807 83.0554 12.2607C83.3554 12.4207 83.7154 11.8207 83.2754 11.5607C82.3754 11.0407 81.2754 10.7407 80.2954 10.8807C79.8754 10.9207 79.8554 11.6007 80.1754 11.6007Z" fill="#4A6AFE"/>
<path d="M97.9393 6.94066C96.4793 6.94066 95.1793 6.50066 94.9993 5.10066C94.7993 3.44066 95.6593 2.66066 97.9993 2.36066C100.499 2.04066 104.219 2.00066 107.979 2.24066C110.319 2.38066 111.539 3.58066 111.539 5.44066C111.539 7.48066 110.519 8.30066 109.139 8.56066C107.699 8.82066 105.939 8.50066 105.399 7.60066C104.919 6.76066 104.999 5.70066 105.759 4.96066C106.079 4.62066 105.819 4.34066 105.519 4.56066C103.379 6.16066 100.939 6.94066 97.9393 6.94066ZM94.2993 10.2207C94.2993 9.42067 94.9993 8.72066 96.1393 8.80066C100.419 9.12066 105.919 9.10066 110.359 8.80066C111.519 8.74066 112.219 9.42067 112.219 10.2207C112.219 11.1607 111.519 11.6207 110.339 11.7007C105.919 12.0607 100.419 12.0607 96.1393 11.7007C94.9993 11.6207 94.2993 11.1607 94.2993 10.2207ZM94.7993 18.0407C94.7993 16.7807 95.7993 16.1007 97.1993 15.9607C98.4393 15.8407 99.5793 15.7007 100.839 15.2607C101.119 15.1607 100.979 14.6607 100.699 14.7407C99.5393 15.1607 98.2393 15.4207 96.9993 15.4807C95.5393 15.5607 94.9793 14.8007 94.9793 13.8207C94.9793 12.9207 95.5393 12.2807 96.6193 12.3407C100.719 12.6407 105.799 12.6407 109.899 12.3407C110.999 12.2807 111.519 12.8007 111.519 13.6207C111.519 14.3407 111.019 14.9207 110.299 14.9407C108.079 14.9807 105.939 15.6607 104.539 16.7007C104.279 16.8807 104.439 17.3007 104.759 17.1207C105.999 16.3207 107.499 15.6207 109.119 15.6007C110.719 15.5407 111.679 16.3607 111.679 17.6407C111.679 18.9807 110.719 19.5607 108.919 19.6807C105.039 19.9607 100.659 19.9207 96.9993 19.6607C95.6193 19.5807 94.7993 19.1607 94.7993 18.0407Z" fill="#4A6AFE"/>
<defs>
<radialGradient id="paint0_radial_251_6219" cx="0" cy="0" r="1" gradientUnits="userSpaceOnUse" gradientTransform="translate(28.1667 7.37109) rotate(129.629) scale(13.8494)">
<stop stop-color="white"/>
<stop offset="1" stop-color="#7EB2FF"/>
</radialGradient>
<radialGradient id="paint1_radial_251_6219" cx="0" cy="0" r="1" gradientUnits="userSpaceOnUse" gradientTransform="translate(11.8333 13.2044) rotate(-139.808) scale(12.6546)">
<stop stop-color="white"/>
<stop offset="1" stop-color="#FFF27E"/>
</radialGradient>
</defs>
</svg>
