<svg width="24" height="24" viewBox="0 0 24 24" fill="none" xmlns="http://www.w3.org/2000/svg">
<path d="M18 7.14307H6C5.45 7.14307 5 6.80557 5 6.39307C5 5.98057 5.45 5.64307 6 5.64307H18C18.55 5.64307 19 5.98057 19 6.39307C19 6.80557 18.55 7.14307 18 7.14307Z" fill="#6C6C6C"/>
<path d="M18 12.75H6C5.45 12.75 5 12.4125 5 12C5 11.5875 5.45 11.25 6 11.25H18C18.55 11.25 19 11.5875 19 12C19 12.4125 18.55 12.75 18 12.75Z" fill="#6C6C6C"/>
<path d="M18 18.3569H6C5.45 18.3569 5 18.0194 5 17.6069C5 17.1944 5.45 16.8569 6 16.8569H18C18.55 16.8569 19 17.1944 19 17.6069C19 18.0194 18.55 18.3569 18 18.3569Z" fill="#6C6C6C"/>
<circle cx="9.43555" cy="6.39307" r="1.5" fill="white" stroke="#6C6C6C" stroke-width="1.5"/>
<circle cx="9.43555" cy="17.6069" r="1.5" fill="white" stroke="#6C6C6C" stroke-width="1.5"/>
<circle cx="14.5645" cy="12" r="1.5" fill="white" stroke="#6C6C6C" stroke-width="1.5"/>
</svg>
