<svg width="24" height="25" viewBox="0 0 24 25" fill="none" xmlns="http://www.w3.org/2000/svg">
<path d="M16.9318 15.8548H16.0514L15.7393 15.5539C17.0767 13.9936 17.7677 11.865 17.3888 9.60254C16.865 6.50425 14.2794 4.03008 11.1588 3.65115C6.44448 3.07161 2.47689 7.0392 3.05642 11.7535C3.43535 14.8741 5.90952 17.4597 9.00781 17.9835C11.2702 18.3624 13.3989 17.6715 14.9592 16.3341L15.2601 16.6461V17.5266L19.9967 22.2632C20.4536 22.7201 21.2003 22.7201 21.6573 22.2632C22.1142 21.8062 22.1142 21.0595 21.6573 20.6026L16.9318 15.8548ZM10.2449 15.8548C7.46981 15.8548 5.22968 13.6147 5.22968 10.8396C5.22968 8.06454 7.46981 5.82441 10.2449 5.82441C13.02 5.82441 15.2601 8.06454 15.2601 10.8396C15.2601 13.6147 13.02 15.8548 10.2449 15.8548Z" fill="black"/>
</svg>
