<svg width="30" height="30" viewBox="0 0 30 30" fill="none" xmlns="http://www.w3.org/2000/svg">
<circle cx="15" cy="15" r="15" fill="#FCFCFC"/>
<path d="M23 19.6364C23 20.0221 22.8468 20.3921 22.574 20.6649C22.3012 20.9377 21.9312 21.0909 21.5455 21.0909H8.45455C8.06878 21.0909 7.69881 20.9377 7.42603 20.6649C7.15325 20.3921 7 20.0221 7 19.6364V11.6364C7 11.2506 7.15325 10.8806 7.42603 10.6078C7.69881 10.3351 8.06878 10.1818 8.45455 10.1818H11.3636L12.8182 8H17.1818L18.6364 10.1818H21.5455C21.9312 10.1818 22.3012 10.3351 22.574 10.6078C22.8468 10.8806 23 11.2506 23 11.6364V19.6364Z" fill="#6C6C6C"/>
<path d="M14.9989 18.1815C16.6056 18.1815 17.908 16.879 17.908 15.2724C17.908 13.6657 16.6056 12.3633 14.9989 12.3633C13.3923 12.3633 12.0898 13.6657 12.0898 15.2724C12.0898 16.879 13.3923 18.1815 14.9989 18.1815Z" stroke="#FCFCFC" stroke-width="1.2" stroke-linecap="round" stroke-linejoin="round"/>
</svg>
