<svg width="56" height="57" viewBox="0 0 56 57" fill="none" xmlns="http://www.w3.org/2000/svg">
<circle cx="28" cy="28.5" r="28" fill="#FFF27E"/>
<path fill-rule="evenodd" clip-rule="evenodd" d="M27 23.5H29V25.5H27V23.5ZM27 27.5H29V33.5H27V27.5ZM28 18.5C22.48 18.5 18 22.98 18 28.5C18 34.02 22.48 38.5 28 38.5C33.52 38.5 38 34.02 38 28.5C38 22.98 33.52 18.5 28 18.5ZM28 36.5C23.59 36.5 20 32.91 20 28.5C20 24.09 23.59 20.5 28 20.5C32.41 20.5 36 24.09 36 28.5C36 32.91 32.41 36.5 28 36.5Z" fill="black"/>
</svg>
