<svg width="56" height="57" viewBox="0 0 56 57" fill="none" xmlns="http://www.w3.org/2000/svg">
<circle cx="28" cy="28.5" r="28" fill="#FFF27E"/>
<path d="M35.6602 21.7407C33.0202 19.9407 29.7602 20.7807 28.0002 22.8407C26.2402 20.7807 22.9802 19.9307 20.3402 21.7407C18.9402 22.7007 18.0602 24.3207 18.0002 26.0307C17.8602 29.9107 21.3002 33.0207 26.5502 37.7907L26.6502 37.8807C27.4102 38.5707 28.5802 38.5707 29.3402 37.8707L29.4502 37.7707C34.7002 33.0107 38.1302 29.9007 38.0002 26.0207C37.9402 24.3207 37.0602 22.7007 35.6602 21.7407ZM28.1002 36.3007L28.0002 36.4007L27.9002 36.3007C23.1402 31.9907 20.0002 29.1407 20.0002 26.2507C20.0002 24.2507 21.5002 22.7507 23.5002 22.7507C25.0402 22.7507 26.5402 23.7407 27.0702 25.1107H28.9402C29.4602 23.7407 30.9602 22.7507 32.5002 22.7507C34.5002 22.7507 36.0002 24.2507 36.0002 26.2507C36.0002 29.1407 32.8602 31.9907 28.1002 36.3007Z" fill="#1E1E1E"/>
</svg>
