<svg width="56" height="57" viewBox="0 0 56 57" fill="none" xmlns="http://www.w3.org/2000/svg">
<circle cx="28" cy="28.5" r="28" fill="#FFF27E"/>
<path fill-rule="evenodd" clip-rule="evenodd" d="M28 38.5C29.1 38.5 30 37.6 30 36.5H26C26 37.6 26.9 38.5 28 38.5ZM34 32.5V27.5C34 24.43 32.37 21.86 29.5 21.18V20.5C29.5 19.67 28.83 19 28 19C27.17 19 26.5 19.67 26.5 20.5V21.18C23.64 21.86 22 24.42 22 27.5V32.5L20 34.5V35.5H36V34.5L34 32.5ZM32 33.5H24V27.5C24 25.02 25.51 23 28 23C30.49 23 32 25.02 32 27.5V33.5Z" fill="black"/>
</svg>
