<svg width="76" height="141" viewBox="0 0 76 141" fill="none" xmlns="http://www.w3.org/2000/svg">
<path d="M75.5 38C75.5 58.7107 58.7107 75.5 38 75.5C17.2893 75.5 0.5 58.7107 0.5 38C0.5 17.2893 17.2893 0.5 38 0.5C58.7107 0.5 75.5 17.2893 75.5 38Z" fill="url(#paint0_radial_1430_7327)"/>
<path d="M47.389 34.7421C47.4837 33.4655 46.5257 32.3539 45.2491 32.2591C43.9725 32.1643 42.8608 33.1224 42.766 34.399L42.7088 35.1695C42.6141 36.4461 43.5722 37.5578 44.8488 37.6525C46.1253 37.7473 47.237 36.7892 47.3318 35.5126L47.389 34.7421Z" fill="#1B1B1B"/>
<path d="M59.1214 35.6604C59.2162 34.3838 58.2581 33.2721 56.9815 33.1773C55.7049 33.0826 54.5932 34.0406 54.4985 35.3172L54.4413 36.0877C54.3465 37.3643 55.3046 38.476 56.5812 38.5708C57.8578 38.6655 58.9695 37.7074 59.0642 36.4308L59.1214 35.6604Z" fill="#1B1B1B"/>
<path fill-rule="evenodd" clip-rule="evenodd" d="M54.1193 44.4395C54.1205 44.4275 54.1265 44.3649 54.0518 44.2283C53.9694 44.0777 53.7963 43.8569 53.4761 43.612C52.8272 43.1157 51.7637 42.6702 50.4327 42.5443C49.1017 42.4184 47.9735 42.6565 47.243 43.0223C46.8826 43.2027 46.6712 43.3872 46.562 43.5197C46.463 43.6398 46.4572 43.7021 46.456 43.7141C46.4549 43.726 46.4489 43.7891 46.5236 43.9256C46.606 44.0762 46.7791 44.2971 47.0992 44.542C47.7481 45.0383 48.8117 45.4837 50.1427 45.6096C51.4737 45.7356 52.6019 45.4975 53.3324 45.1317C53.6927 44.9512 53.9042 44.7667 54.0134 44.6342C54.1124 44.5141 54.1182 44.4514 54.1193 44.4395ZM49.9252 47.9086C53.311 48.229 56.2181 46.7732 56.4183 44.657C56.6186 42.5408 54.0361 40.5657 50.6502 40.2453C47.2643 39.925 44.3572 41.3808 44.157 43.4969C43.9568 45.6131 46.5393 47.5883 49.9252 47.9086Z" fill="black"/>
<path d="M75.5 103C75.5 123.711 58.7107 140.5 38 140.5C17.2893 140.5 0.5 123.711 0.5 103C0.5 82.2893 17.2893 65.5 38 65.5C58.7107 65.5 75.5 82.2893 75.5 103Z" fill="url(#paint1_radial_1430_7327)"/>
<path d="M24.9725 89.802C25.3674 88.5843 24.7004 87.2771 23.4827 86.8822C22.265 86.4874 20.9578 87.1544 20.5629 88.3721L20.3246 89.107C19.9297 90.3247 20.5968 91.6319 21.8145 92.0268C23.0321 92.4216 24.3394 91.7546 24.7342 90.5369L24.9725 89.802Z" fill="#1B1B1B"/>
<path d="M36.1503 93.4768C36.5451 92.2591 35.8781 90.9519 34.6604 90.557C33.4427 90.1622 32.1355 90.8292 31.7407 92.0469L31.5023 92.7818C31.1075 93.9995 31.7745 95.3067 32.9922 95.7016C34.2099 96.0964 35.5171 95.4294 35.912 94.2117L36.1503 93.4768Z" fill="#1B1B1B"/>
<path fill-rule="evenodd" clip-rule="evenodd" d="M29.6981 100.881C29.7013 100.87 29.7182 100.809 29.6684 100.662C29.6135 100.499 29.4815 100.251 29.2088 99.9546C28.6562 99.3529 27.6865 98.7291 26.3978 98.3734C25.109 98.0176 23.9566 98.0556 23.1736 98.2887C22.7873 98.4036 22.5469 98.5485 22.4163 98.66C22.298 98.761 22.2814 98.8213 22.2782 98.8329C22.275 98.8445 22.2581 98.9055 22.3079 99.053C22.3628 99.2156 22.4948 99.4633 22.7674 99.7601C23.32 100.362 24.2897 100.986 25.5785 101.341C26.8672 101.697 28.0196 101.659 28.8027 101.426C29.189 101.311 29.4293 101.166 29.5599 101.055C29.6783 100.954 29.695 100.893 29.6981 100.881ZM24.964 103.567C28.2424 104.472 31.3586 103.545 31.9242 101.496C32.4898 99.4469 30.2906 97.0523 27.0122 96.1473C23.7338 95.2424 20.6177 96.1698 20.0521 98.2188C19.4865 100.268 21.6856 102.662 24.964 103.567Z" fill="black"/>
<defs>
<radialGradient id="paint0_radial_1430_7327" cx="0" cy="0" r="1" gradientUnits="userSpaceOnUse" gradientTransform="translate(45.1628 38) rotate(-149.091) scale(42.5855)">
<stop stop-color="#FFFACF"/>
<stop offset="0.734375" stop-color="#FFF27E"/>
</radialGradient>
<radialGradient id="paint1_radial_1430_7327" cx="0" cy="0" r="1" gradientUnits="userSpaceOnUse" gradientTransform="translate(26.5439 98.1143) rotate(113.095) scale(34.5279)">
<stop stop-color="#D1E2FD"/>
<stop offset="0.755208" stop-color="#7EB2FF"/>
</radialGradient>
</defs>
</svg>
