<svg width="140" height="75" viewBox="0 0 140 75" fill="none" xmlns="http://www.w3.org/2000/svg">
<path d="M75 37.5C75 58.2107 58.2107 75 37.5 75C16.7893 75 0 58.2107 0 37.5C0 16.7893 16.7893 0 37.5 0C58.2107 0 75 16.7893 75 37.5Z" fill="url(#paint0_radial_1494_7942)"/>
<path d="M46.889 34.2421C46.9837 32.9655 46.0257 31.8539 44.7491 31.7591C43.4725 31.6643 42.3608 32.6224 42.266 33.899L42.2088 34.6695C42.1141 35.9461 43.0722 37.0578 44.3488 37.1525C45.6253 37.2473 46.737 36.2892 46.8318 35.0126L46.889 34.2421Z" fill="#1B1B1B"/>
<path d="M58.6214 35.1604C58.7162 33.8838 57.7581 32.7721 56.4815 32.6773C55.2049 32.5826 54.0932 33.5406 53.9985 34.8172L53.9413 35.5877C53.8465 36.8643 54.8046 37.976 56.0812 38.0708C57.3578 38.1655 58.4695 37.2074 58.5642 35.9308L58.6214 35.1604Z" fill="#1B1B1B"/>
<path fill-rule="evenodd" clip-rule="evenodd" d="M53.6193 43.9395C53.6205 43.9275 53.6265 43.8649 53.5518 43.7283C53.4694 43.5777 53.2963 43.3569 52.9761 43.112C52.3272 42.6157 51.2637 42.1702 49.9327 42.0443C48.6017 41.9184 47.4735 42.1565 46.743 42.5223C46.3826 42.7027 46.1712 42.8872 46.062 43.0197C45.963 43.1398 45.9572 43.2021 45.956 43.2141C45.9549 43.226 45.9489 43.2891 46.0236 43.4256C46.106 43.5762 46.2791 43.7971 46.5992 44.042C47.2481 44.5383 48.3117 44.9837 49.6427 45.1096C50.9737 45.2356 52.1019 44.9975 52.8324 44.6317C53.1927 44.4512 53.4042 44.2667 53.5134 44.1342C53.6124 44.0141 53.6182 43.9514 53.6193 43.9395ZM49.4252 47.4086C52.811 47.729 55.7181 46.2732 55.9183 44.157C56.1186 42.0408 53.5361 40.0657 50.1502 39.7453C46.7643 39.425 43.8572 40.8808 43.657 42.9969C43.4568 45.1131 46.0393 47.0883 49.4252 47.4086Z" fill="black"/>
<path d="M140 37.5C140 58.2107 123.211 75 102.5 75C81.7893 75 65 58.2107 65 37.5C65 16.7893 81.7893 0 102.5 0C123.211 0 140 16.7893 140 37.5Z" fill="url(#paint1_radial_1494_7942)"/>
<path d="M110.862 23.048C110.553 21.8057 109.296 21.0489 108.053 21.3578C106.811 21.6666 106.054 22.924 106.363 24.1663L106.55 24.9161C106.858 26.1584 108.116 26.9151 109.358 26.6063C110.6 26.2975 111.357 25.04 111.048 23.7977L110.862 23.048Z" fill="#1B1B1B"/>
<path d="M122.294 20.255C121.985 19.0127 120.727 18.256 119.485 18.5648C118.243 18.8736 117.486 20.131 117.795 21.3733L117.981 22.1231C118.29 23.3654 119.547 24.1222 120.79 23.8133C122.032 23.5045 122.789 22.2471 122.48 21.0048L122.294 20.255Z" fill="#1B1B1B"/>
<path fill-rule="evenodd" clip-rule="evenodd" d="M120.731 29.9524C120.727 29.9408 120.71 29.8805 120.589 29.7816C120.457 29.6726 120.214 29.5323 119.825 29.4245C119.038 29.206 117.885 29.1894 116.603 29.569C115.321 29.9486 114.363 30.5903 113.822 31.2022C113.555 31.5041 113.428 31.7541 113.376 31.9178C113.329 32.0661 113.346 32.1261 113.35 32.1376C113.353 32.1491 113.371 32.2099 113.491 32.3087C113.624 32.4177 113.867 32.5581 114.255 32.6658C115.043 32.8843 116.196 32.9009 117.477 32.5213C118.759 32.1417 119.717 31.5 120.259 30.8881C120.526 30.5863 120.653 30.3362 120.705 30.1726C120.752 30.0242 120.734 29.9639 120.731 29.9524ZM118.133 34.7355C121.394 33.7699 123.549 31.3348 122.945 29.2967C122.341 27.2585 119.209 26.3891 115.948 27.3548C112.687 28.3204 110.532 30.7555 111.136 32.7936C111.739 34.8318 114.872 35.7012 118.133 34.7355Z" fill="black"/>
<defs>
<radialGradient id="paint0_radial_1494_7942" cx="0" cy="0" r="1" gradientUnits="userSpaceOnUse" gradientTransform="translate(44.6628 37.5) rotate(-149.091) scale(42.5855)">
<stop stop-color="#FFFACF"/>
<stop offset="0.734375" stop-color="#FFF27E"/>
</radialGradient>
<radialGradient id="paint1_radial_1494_7942" cx="0" cy="0" r="1" gradientUnits="userSpaceOnUse" gradientTransform="translate(110.625 24.375) rotate(129.629) scale(51.9352)">
<stop stop-color="#D1E2FD"/>
<stop offset="0.755208" stop-color="#7EB2FF"/>
</radialGradient>
</defs>
</svg>
