<svg width="24" height="25" viewBox="0 0 24 25" fill="none" xmlns="http://www.w3.org/2000/svg">
<path d="M15.5355 17.4508L12 13.9153L8.46447 17.4508C8.07556 17.8397 7.43916 17.8397 7.05025 17.4508C6.66134 17.0619 6.66134 16.4255 7.05025 16.0366L10.5858 12.5011L7.05025 8.96552C6.66134 8.57661 6.66134 7.94022 7.05025 7.55131C7.43916 7.1624 8.07556 7.1624 8.46447 7.55131L12 11.0868L15.5355 7.55131C15.9244 7.1624 16.5608 7.1624 16.9497 7.55131C17.3387 7.94022 17.3387 8.57661 16.9497 8.96552L13.4142 12.5011L16.9497 16.0366C17.3387 16.4255 17.3387 17.0619 16.9497 17.4508C16.5608 17.8397 15.9244 17.8397 15.5355 17.4508Z" fill="black"/>
</svg>
