<svg width="25" height="25" viewBox="0 0 25 25" fill="none" xmlns="http://www.w3.org/2000/svg">
<path d="M16.5859 10.9421C16.2959 10.6521 15.8159 10.6521 15.5259 10.9421L11.1759 15.2921L9.58594 13.7021C9.29594 13.4121 8.81594 13.4121 8.52594 13.7021C8.23594 13.9921 8.23594 14.4721 8.52594 14.7621L10.4659 16.7021C10.8559 17.0921 11.4859 17.0921 11.8759 16.7021L16.5759 12.0021C16.8759 11.7121 16.8759 11.2321 16.5859 10.9421ZM19.5859 3.41211H18.5859V2.41211C18.5859 1.86211 18.1359 1.41211 17.5859 1.41211C17.0359 1.41211 16.5859 1.86211 16.5859 2.41211V3.41211H8.58594V2.41211C8.58594 1.86211 8.13594 1.41211 7.58594 1.41211C7.03594 1.41211 6.58594 1.86211 6.58594 2.41211V3.41211H5.58594C4.47594 3.41211 3.59594 4.31211 3.59594 5.41211L3.58594 19.4121C3.58594 20.5121 4.47594 21.4121 5.58594 21.4121H19.5859C20.6859 21.4121 21.5859 20.5121 21.5859 19.4121V5.41211C21.5859 4.31211 20.6859 3.41211 19.5859 3.41211ZM18.5859 19.4121H6.58594C6.03594 19.4121 5.58594 18.9621 5.58594 18.4121V8.41211H19.5859V18.4121C19.5859 18.9621 19.1359 19.4121 18.5859 19.4121Z" fill="#4A6AFE"/>
</svg>
