<svg width="25" height="25" viewBox="0 0 25 25" fill="none" xmlns="http://www.w3.org/2000/svg">
<path d="M7.58594 11.6084H9.58594V13.6084H7.58594V11.6084ZM21.5859 6.6084V20.6084C21.5859 21.7084 20.6859 22.6084 19.5859 22.6084H5.58594C4.47594 22.6084 3.58594 21.7084 3.58594 20.6084L3.59594 6.6084C3.59594 5.5084 4.47594 4.6084 5.58594 4.6084H6.58594V2.6084H8.58594V4.6084H16.5859V2.6084H18.5859V4.6084H19.5859C20.6859 4.6084 21.5859 5.5084 21.5859 6.6084ZM5.58594 8.6084H19.5859V6.6084H5.58594V8.6084ZM19.5859 20.6084V10.6084H5.58594V20.6084H19.5859ZM15.5859 13.6084H17.5859V11.6084H15.5859V13.6084ZM11.5859 13.6084H13.5859V11.6084H11.5859V13.6084Z" fill="#1E1E1E"/>
</svg>
