<svg width="25" height="25" viewBox="0 0 25 25" fill="none" xmlns="http://www.w3.org/2000/svg">
<path d="M18.5859 16.4921C17.8259 16.4921 17.1459 16.7921 16.6259 17.2621L9.49594 13.1121C9.54594 12.8821 9.58594 12.6521 9.58594 12.4121C9.58594 12.1721 9.54594 11.9421 9.49594 11.7121L16.5459 7.60211C17.0859 8.10211 17.7959 8.41211 18.5859 8.41211C20.2459 8.41211 21.5859 7.07211 21.5859 5.41211C21.5859 3.75211 20.2459 2.41211 18.5859 2.41211C16.9259 2.41211 15.5859 3.75211 15.5859 5.41211C15.5859 5.65211 15.6259 5.88211 15.6759 6.11211L8.62594 10.2221C8.08594 9.72211 7.37594 9.41211 6.58594 9.41211C4.92594 9.41211 3.58594 10.7521 3.58594 12.4121C3.58594 14.0721 4.92594 15.4121 6.58594 15.4121C7.37594 15.4121 8.08594 15.1021 8.62594 14.6021L15.7459 18.7621C15.6959 18.9721 15.6659 19.1921 15.6659 19.4121C15.6659 21.0221 16.9759 22.3321 18.5859 22.3321C20.1959 22.3321 21.5059 21.0221 21.5059 19.4121C21.5059 17.8021 20.1959 16.4921 18.5859 16.4921Z" fill="#4A6AFE"/>
</svg>
