<svg width="40" height="40" viewBox="0 0 40 40" fill="none" xmlns="http://www.w3.org/2000/svg">
<g opacity="0.8">
<rect width="40" height="40" rx="20" fill="#6C6C6C"/>
<path d="M27.8574 14.1113H24.8217L24.0985 12.0845C24.0485 11.9459 23.957 11.826 23.8363 11.7413C23.7157 11.6566 23.5718 11.6112 23.4244 11.6113H16.5762C16.2748 11.6113 16.0047 11.8011 15.9043 12.0845L15.1789 14.1113H12.1431C11.1565 14.1113 10.3574 14.9104 10.3574 15.897V26.0756C10.3574 27.0622 11.1565 27.8613 12.1431 27.8613H27.8574C28.844 27.8613 29.6431 27.0622 29.6431 26.0756V15.897C29.6431 14.9104 28.844 14.1113 27.8574 14.1113ZM28.036 26.0756C28.036 26.1738 27.9556 26.2542 27.8574 26.2542H12.1431C12.0449 26.2542 11.9646 26.1738 11.9646 26.0756V15.897C11.9646 15.7988 12.0449 15.7185 12.1431 15.7185H16.3105L16.6922 14.6515L17.2034 13.2185H22.7949L23.3061 14.6515L23.6878 15.7185H27.8574C27.9556 15.7185 28.036 15.7988 28.036 15.897V26.0756ZM20.0003 17.147C18.0271 17.147 16.4289 18.7453 16.4289 20.7185C16.4289 22.6917 18.0271 24.2899 20.0003 24.2899C21.9735 24.2899 23.5717 22.6917 23.5717 20.7185C23.5717 18.7453 21.9735 17.147 20.0003 17.147ZM20.0003 22.8613C18.8172 22.8613 17.8574 21.9015 17.8574 20.7185C17.8574 19.5354 18.8172 18.5756 20.0003 18.5756C21.1833 18.5756 22.1431 19.5354 22.1431 20.7185C22.1431 21.9015 21.1833 22.8613 20.0003 22.8613Z" fill="#FCFCFC"/>
</g>
</svg>
