<svg width="24" height="24" viewBox="0 0 24 24" fill="none" xmlns="http://www.w3.org/2000/svg">
<path d="M24 12C24 18.6274 18.6274 24 12 24C5.37258 24 0 18.6274 0 12C0 5.37258 5.37258 0 12 0C18.6274 0 24 5.37258 24 12Z" fill="url(#paint0_radial_246_6034)"/>
<path d="M10.6577 10.1825C10.6871 9.51809 10.1723 8.95565 9.50794 8.92623C8.84354 8.89682 8.2811 9.41158 8.25168 10.076L8.23393 10.477C8.20452 11.1414 8.71927 11.7038 9.38367 11.7332C10.0481 11.7626 10.6105 11.2479 10.6399 10.5835L10.6577 10.1825Z" fill="#1B1B1B"/>
<path d="M15.7671 10.1825C15.7965 9.51809 15.2817 8.95565 14.6173 8.92623C13.9529 8.89682 13.3905 9.41158 13.3611 10.076L13.3433 10.477C13.3139 11.1414 13.8286 11.7038 14.493 11.7332C15.1574 11.7626 15.7199 11.2479 15.7493 10.5835L15.7671 10.1825Z" fill="#1B1B1B"/>
<path fill-rule="evenodd" clip-rule="evenodd" d="M13.5904 14.6118C13.5904 14.6071 13.5904 14.5821 13.5559 14.531C13.5177 14.4747 13.4411 14.3939 13.3056 14.3092C13.031 14.1376 12.5945 14.0015 12.0645 14.0015C11.5345 14.0015 11.098 14.1376 10.8234 14.3092C10.6879 14.3939 10.6113 14.4747 10.5731 14.531C10.5386 14.5821 10.5386 14.6069 10.5386 14.6117C10.5386 14.6164 10.5386 14.6416 10.5731 14.6927C10.6113 14.749 10.6879 14.8298 10.8234 14.9144C11.098 15.0861 11.5345 15.2222 12.0645 15.2222C12.5945 15.2222 13.031 15.0861 13.3056 14.9144C13.4411 14.8298 13.5177 14.749 13.5559 14.6927C13.5904 14.6416 13.5904 14.6166 13.5904 14.6118ZM12.0645 16.1378C13.4129 16.1378 14.506 15.4546 14.506 14.6118C14.506 13.7691 13.4129 13.0859 12.0645 13.0859C10.7161 13.0859 9.62305 13.7691 9.62305 14.6118C9.62305 15.4546 10.7161 16.1378 12.0645 16.1378Z" fill="black"/>
<defs>
<radialGradient id="paint0_radial_246_6034" cx="0" cy="0" r="1" gradientUnits="userSpaceOnUse" gradientTransform="translate(12 12) rotate(-180) scale(12)">
<stop stop-color="white"/>
<stop offset="1" stop-color="#FFF27E"/>
</radialGradient>
</defs>
</svg>
