<svg width="71" height="71" viewBox="0 0 71 71" fill="none" xmlns="http://www.w3.org/2000/svg">
<path d="M70.5 35.0762C70.5 54.4061 54.83 70.0762 35.5 70.0762C16.17 70.0762 0.5 54.4061 0.5 35.0762C0.5 15.7462 16.17 0.0761719 35.5 0.0761719C54.83 0.0761719 70.5 15.7462 70.5 35.0762Z" fill="#ECECEC"/>
<path d="M30.2491 30.1326C30.2395 28.2502 28.7058 26.732 26.8235 26.7416C24.9411 26.7512 23.4229 28.2849 23.4325 30.1672L23.4383 31.3033C23.4479 33.1857 24.9816 34.7039 26.8639 34.6943C28.7463 34.6847 30.2644 33.151 30.2549 31.2687L30.2491 30.1326Z" fill="#1B1B1B"/>
<path d="M47.5531 30.1143C47.5436 28.232 46.0099 26.7138 44.1275 26.7234C42.2452 26.733 40.727 28.2667 40.7366 30.149L40.7423 31.2851C40.7519 33.1674 42.2856 34.6856 44.168 34.6761C46.0503 34.6665 47.5685 33.1328 47.5589 31.2504L47.5531 30.1143Z" fill="#1B1B1B"/>
<path fill-rule="evenodd" clip-rule="evenodd" d="M41.2452 43.5634C41.2455 43.5458 41.247 43.4532 41.1216 43.2618C40.9833 43.0506 40.7039 42.7469 40.2061 42.4252C39.1972 41.7732 37.5863 41.2439 35.6206 41.2141C33.6549 41.1843 32.0288 41.6645 31.0005 42.2857C30.4932 42.5921 30.2047 42.8872 30.0601 43.0941C29.9289 43.2817 29.9277 43.3736 29.9274 43.3913C29.9271 43.4089 29.9256 43.5021 30.051 43.6935C30.1893 43.9047 30.4687 44.2084 30.9665 44.5301C31.9754 45.1821 33.5863 45.7114 35.552 45.7412C37.5177 45.771 39.1438 45.2908 40.1721 44.6696C40.6794 44.3632 40.9679 44.0681 41.1125 43.8612C41.2437 43.6737 41.245 43.5811 41.2452 43.5634ZM35.5005 49.1366C40.501 49.2124 44.5932 46.7402 44.6405 43.6149C44.6879 40.4896 40.6726 37.8946 35.6721 37.8187C30.6716 37.7429 26.5794 40.2151 26.5321 43.3404C26.4847 46.4657 30.5 49.0608 35.5005 49.1366Z" fill="black"/>
</svg>
