<svg width="24" height="24" viewBox="0 0 24 24" fill="none" xmlns="http://www.w3.org/2000/svg">
<path d="M24 12C24 18.6274 18.6274 24 12 24C5.37258 24 0 18.6274 0 12C0 5.37258 5.37258 0 12 0C18.6274 0 24 5.37258 24 12Z" fill="#C1C1C1"/>
<path fill-rule="evenodd" clip-rule="evenodd" d="M13.9702 14.9102C13.9703 14.9042 13.9708 14.8724 13.9278 14.8068C13.8804 14.7344 13.7846 14.6303 13.6139 14.52C13.268 14.2964 12.7157 14.1149 12.0417 14.1047C11.3678 14.0945 10.8103 14.2592 10.4577 14.4721C10.2838 14.5772 10.1849 14.6784 10.1353 14.7493C10.0903 14.8136 10.0899 14.8451 10.0898 14.8512C10.0897 14.8572 10.0892 14.8892 10.1322 14.9548C10.1796 15.0272 10.2754 15.1313 10.446 15.2416C10.792 15.4652 11.3443 15.6467 12.0182 15.6569C12.6922 15.6671 13.2497 15.5025 13.6022 15.2895C13.7762 15.1844 13.8751 15.0833 13.9247 15.0123C13.9696 14.948 13.9701 14.9163 13.9702 14.9102ZM12.0006 16.821C13.715 16.847 15.118 15.9994 15.1343 14.9279C15.1505 13.8563 13.7739 12.9666 12.0594 12.9406C10.3449 12.9146 8.94191 13.7622 8.92567 14.8338C8.90942 15.9053 10.2861 16.795 12.0006 16.821Z" fill="black"/>
<path d="M7 9L17 12" stroke="black"/>
<path d="M7 12L17 9" stroke="black"/>
</svg>
