<svg width="20" height="21" viewBox="0 0 20 21" fill="none" xmlns="http://www.w3.org/2000/svg">
<path d="M14.1099 12.7921H13.3762L13.1161 12.5414C14.2306 11.2411 14.8064 9.46724 14.4907 7.58189C14.0541 4.99998 11.8995 2.93817 9.29898 2.6224C5.3704 2.13945 2.06407 5.44578 2.54702 9.37436C2.86279 11.9748 4.9246 14.1295 7.50651 14.566C9.39186 14.8818 11.1658 14.306 12.466 13.1915L12.7168 13.4515V14.1853L16.6639 18.1324C17.0447 18.5132 17.667 18.5132 18.0477 18.1324C18.4285 17.7516 18.4285 17.1294 18.0477 16.7486L14.1099 12.7921ZM8.53741 12.7921C6.22484 12.7921 4.35807 10.9254 4.35807 8.61279C4.35807 6.30022 6.22484 4.43345 8.53741 4.43345C10.85 4.43345 12.7168 6.30022 12.7168 8.61279C12.7168 10.9254 10.85 12.7921 8.53741 12.7921Z" fill="#C1C1C1"/>
</svg>
