<svg width="20" height="20" viewBox="0 0 20 20" fill="none" xmlns="http://www.w3.org/2000/svg">
<path d="M14.1099 12.7161H13.3762L13.1161 12.4654C14.2306 11.1651 14.8064 9.39125 14.4907 7.5059C14.0541 4.92399 11.8995 2.86218 9.29898 2.54641C5.3704 2.06346 2.06407 5.36979 2.54702 9.29837C2.86279 11.8989 4.9246 14.0535 7.50651 14.49C9.39186 14.8058 11.1658 14.23 12.466 13.1155L12.7168 13.3756V14.1093L16.6639 18.0564C17.0447 18.4372 17.667 18.4372 18.0477 18.0564C18.4285 17.6756 18.4285 17.0534 18.0477 16.6726L14.1099 12.7161ZM8.53741 12.7161C6.22484 12.7161 4.35807 10.8494 4.35807 8.5368C4.35807 6.22423 6.22484 4.35746 8.53741 4.35746C10.85 4.35746 12.7168 6.22423 12.7168 8.5368C12.7168 10.8494 10.85 12.7161 8.53741 12.7161Z" fill="#6C6C6C"/>
</svg>
