<svg width="20" height="21" viewBox="0 0 20 21" fill="none" xmlns="http://www.w3.org/2000/svg">
<path d="M12.9463 14.2008L10 11.2545L7.05372 14.2008C6.72963 14.5249 6.1993 14.5249 5.87521 14.2008C5.55112 13.8767 5.55112 13.3464 5.87521 13.0223L8.82149 10.076L5.87521 7.12972C5.55112 6.80563 5.55112 6.2753 5.87521 5.95121C6.1993 5.62711 6.72963 5.62711 7.05372 5.95121L10 8.89748L12.9463 5.95121C13.2704 5.62711 13.8007 5.62711 14.1248 5.95121C14.4489 6.2753 14.4489 6.80563 14.1248 7.12972L11.1785 10.076L14.1248 13.0223C14.4489 13.3464 14.4489 13.8767 14.1248 14.2008C13.8007 14.5249 13.2704 14.5249 12.9463 14.2008Z" fill="#C1C1C1"/>
</svg>
