<svg width="141" height="141" viewBox="0 0 141 141" fill="none" xmlns="http://www.w3.org/2000/svg">
<g opacity="0.9">
<path d="M75.1699 37.8291C75.1699 58.5398 58.3806 75.3291 37.6699 75.3291C16.9592 75.3291 0.169922 58.5398 0.169922 37.8291C0.169922 17.1184 16.9592 0.329102 37.6699 0.329102C58.3806 0.329102 75.1699 17.1184 75.1699 37.8291Z" fill="url(#paint0_radial_251_6124)"/>
<path d="M47.7933 34.0555C47.8535 32.6948 46.7993 31.543 45.4387 31.4827C44.078 31.4225 42.9261 32.4767 42.8659 33.8373L42.8295 34.6586C42.7693 36.0192 43.8235 37.1711 45.1842 37.2313C46.5448 37.2916 47.6967 36.2374 47.7569 34.8767L47.7933 34.0555Z" fill="#1B1B1B"/>
<path d="M58.2581 34.0555C58.3184 32.6948 57.2642 31.543 55.9035 31.4827C54.5428 31.4225 53.391 32.4767 53.3307 33.8373L53.2944 34.6586C53.2341 36.0192 54.2883 37.1711 55.649 37.2313C57.0097 37.2916 58.1615 36.2374 58.2218 34.8767L58.2581 34.0555Z" fill="#1B1B1B"/>
<path fill-rule="evenodd" clip-rule="evenodd" d="M53.7988 43.126C53.7988 43.1162 53.7989 43.0651 53.7281 42.9605C53.6499 42.845 53.4931 42.6797 53.2156 42.5063C52.6531 42.1547 51.7593 41.876 50.6738 41.876C49.5883 41.876 48.6945 42.1547 48.132 42.5063C47.8545 42.6797 47.6977 42.845 47.6196 42.9605C47.5488 43.0651 47.5488 43.1159 47.5488 43.1256C47.5488 43.1354 47.5488 43.1868 47.6196 43.2915C47.6977 43.4069 47.8545 43.5722 48.132 43.7457C48.6945 44.0972 49.5883 44.376 50.6738 44.376C51.7593 44.376 52.6531 44.0972 53.2156 43.7457C53.4931 43.5722 53.6499 43.4069 53.7281 43.2915C53.7989 43.1868 53.7988 43.1357 53.7988 43.126ZM50.6738 46.251C53.4353 46.251 55.6738 44.8519 55.6738 43.126C55.6738 41.4001 53.4353 40.001 50.6738 40.001C47.9124 40.001 45.6738 41.4001 45.6738 43.126C45.6738 44.8519 47.9124 46.251 50.6738 46.251Z" fill="black"/>
</g>
<g opacity="0.9">
<path d="M140.17 102.829C140.17 123.54 123.381 140.329 102.67 140.329C81.9592 140.329 65.1699 123.54 65.1699 102.829C65.1699 82.1184 81.9592 65.3291 102.67 65.3291C123.381 65.3291 140.17 82.1184 140.17 102.829Z" fill="url(#paint1_radial_251_6124)"/>
<path d="M113.59 109.804C113.65 108.443 112.596 107.291 111.236 107.231C109.875 107.171 108.723 108.225 108.663 109.585L108.626 110.407C108.566 111.767 109.62 112.919 110.981 112.979C112.342 113.04 113.494 111.985 113.554 110.625L113.59 109.804Z" fill="#1B1B1B"/>
<path d="M124.055 109.804C124.115 108.443 123.061 107.291 121.7 107.231C120.34 107.171 119.188 108.225 119.128 109.585L119.091 110.407C119.031 111.767 120.085 112.919 121.446 112.979C122.807 113.04 123.958 111.985 124.019 110.625L124.055 109.804Z" fill="#1B1B1B"/>
<path fill-rule="evenodd" clip-rule="evenodd" d="M119.598 118.874C119.598 118.864 119.598 118.813 119.527 118.709C119.449 118.593 119.292 118.428 119.014 118.254C118.452 117.903 117.558 117.624 116.473 117.624C115.387 117.624 114.493 117.903 113.931 118.254C113.653 118.428 113.497 118.593 113.418 118.709C113.348 118.813 113.348 118.864 113.348 118.874C113.348 118.883 113.348 118.935 113.418 119.04C113.497 119.155 113.653 119.32 113.931 119.494C114.493 119.845 115.387 120.124 116.473 120.124C117.558 120.124 118.452 119.845 119.014 119.494C119.292 119.32 119.449 119.155 119.527 119.04C119.598 118.935 119.598 118.884 119.598 118.874ZM116.473 121.999C119.234 121.999 121.473 120.6 121.473 118.874C121.473 117.148 119.234 115.749 116.473 115.749C113.711 115.749 111.473 117.148 111.473 118.874C111.473 120.6 113.711 121.999 116.473 121.999Z" fill="black"/>
</g>
<g opacity="0.9">
<path d="M140.17 37.8291C140.17 58.5398 123.381 75.3291 102.67 75.3291C81.9592 75.3291 65.1699 58.5398 65.1699 37.8291C65.1699 17.1184 81.9592 0.329102 102.67 0.329102C123.381 0.329102 140.17 17.1184 140.17 37.8291Z" fill="url(#paint2_radial_251_6124)"/>
<path d="M115.548 25.5329C115.219 24.2112 113.882 23.406 112.56 23.7346C111.238 24.0632 110.433 25.401 110.762 26.7228L110.96 27.5206C111.288 28.8423 112.626 29.6475 113.948 29.3189C115.27 28.9903 116.075 27.6524 115.746 26.3307L115.548 25.5329Z" fill="#1B1B1B"/>
<path d="M125.581 22.5612C125.253 21.2395 123.915 20.4343 122.593 20.7629C121.271 21.0915 120.466 22.4294 120.795 23.7511L120.993 24.5489C121.322 25.8706 122.66 26.6758 123.981 26.3472C125.303 26.0186 126.108 24.6807 125.78 23.359L125.581 22.5612Z" fill="#1B1B1B"/>
<path fill-rule="evenodd" clip-rule="evenodd" d="M123.881 32.5254C123.878 32.516 123.864 32.467 123.766 32.3867C123.658 32.2982 123.461 32.1843 123.146 32.0967C122.507 31.9194 121.571 31.9059 120.53 32.2141C119.489 32.5223 118.711 33.0433 118.272 33.5401C118.055 33.7852 117.951 33.9883 117.909 34.1211C117.871 34.2416 117.885 34.2903 117.888 34.2996C117.891 34.309 117.905 34.3583 118.003 34.4386C118.111 34.5271 118.308 34.641 118.623 34.7286C119.263 34.9059 120.199 34.9194 121.24 34.6112C122.28 34.303 123.058 33.782 123.498 33.2852C123.715 33.0401 123.818 32.837 123.86 32.7042C123.898 32.5837 123.884 32.5347 123.881 32.5254ZM121.772 36.409C124.42 35.625 126.169 33.6478 125.679 31.993C125.189 30.3381 122.645 29.6322 119.997 30.4163C117.35 31.2003 115.6 33.1775 116.09 34.8323C116.58 36.4872 119.124 37.1931 121.772 36.409Z" fill="black"/>
</g>
<g opacity="0.9">
<path d="M0.169925 102.829C0.169927 82.1184 16.9593 65.3291 37.6699 65.3291C58.3806 65.3291 75.1699 82.1184 75.1699 102.829C75.1699 123.54 58.3806 140.329 37.6699 140.329C16.9592 140.329 0.169923 123.54 0.169925 102.829Z" fill="url(#paint3_radial_251_6124)"/>
<path d="M24.6629 92.7546C24.9914 91.4328 26.3293 90.6277 27.6511 90.9563C28.9728 91.2849 29.778 92.6227 29.4494 93.9445L29.2511 94.7422C28.9225 96.064 27.5846 96.8691 26.2629 96.5406C24.9411 96.212 24.136 94.8741 24.4646 93.5523L24.6629 92.7546Z" fill="#1B1B1B"/>
<path d="M14.6277 89.7829C14.9563 88.4612 16.2942 87.656 17.6159 87.9846C18.9377 88.3132 19.7428 89.651 19.4142 90.9728L19.2159 91.7706C18.8873 93.0923 17.5495 93.8975 16.2277 93.5689C14.906 93.2403 14.1008 91.9024 14.4294 90.5807L14.6277 89.7829Z" fill="#1B1B1B"/>
<path fill-rule="evenodd" clip-rule="evenodd" d="M16.328 99.747C16.3307 99.7377 16.3452 99.6887 16.4428 99.6084C16.5505 99.5199 16.7478 99.4059 17.0631 99.3184C17.7023 99.141 18.6384 99.1276 19.6793 99.4358C20.7201 99.744 21.498 100.265 21.9375 100.762C22.1543 101.007 22.2577 101.21 22.2999 101.343C22.3381 101.463 22.3236 101.512 22.3208 101.521C22.3181 101.531 22.3035 101.58 22.2059 101.66C22.0982 101.749 21.9009 101.863 21.5856 101.95C20.9464 102.128 20.0103 102.141 18.9694 101.833C17.9286 101.525 17.1507 101.004 16.7112 100.507C16.4944 100.262 16.3909 100.059 16.3488 99.9258C16.3106 99.8054 16.3252 99.7564 16.328 99.747ZM18.437 103.631C15.7893 102.847 14.0401 100.87 14.5301 99.2147C15.0202 97.5598 17.5639 96.8539 20.2116 97.6379C22.8594 98.422 24.6086 100.399 24.1186 102.054C23.6285 103.709 21.0848 104.415 18.437 103.631Z" fill="black"/>
</g>
<defs>
<radialGradient id="paint0_radial_251_6124" cx="0" cy="0" r="1" gradientUnits="userSpaceOnUse" gradientTransform="translate(44.5449 46.5791) rotate(-139.808) scale(47.4547)">
<stop stop-color="white"/>
<stop offset="1" stop-color="#FFF27E"/>
</radialGradient>
<radialGradient id="paint1_radial_251_6124" cx="0" cy="0" r="1" gradientUnits="userSpaceOnUse" gradientTransform="translate(109.545 111.579) rotate(-139.808) scale(47.4547)">
<stop stop-color="white"/>
<stop offset="1" stop-color="#FFF27E"/>
</radialGradient>
<radialGradient id="paint2_radial_251_6124" cx="0" cy="0" r="1" gradientUnits="userSpaceOnUse" gradientTransform="translate(110.795 24.7041) rotate(129.629) scale(51.9352)">
<stop stop-color="white"/>
<stop offset="1" stop-color="#7EB2FF"/>
</radialGradient>
<radialGradient id="paint3_radial_251_6124" cx="0" cy="0" r="1" gradientUnits="userSpaceOnUse" gradientTransform="translate(21.5639 96.3827) rotate(45) scale(52.5701)">
<stop stop-color="white"/>
<stop offset="1" stop-color="#7EB2FF"/>
</radialGradient>
</defs>
</svg>
