<svg width="40" height="41" viewBox="0 0 40 41" fill="none" xmlns="http://www.w3.org/2000/svg">
<path d="M25.8926 28.8254L20 22.9328L14.1074 28.8254C13.4593 29.4736 12.3986 29.4736 11.7504 28.8254C11.1022 28.1772 11.1022 27.1166 11.7504 26.4684L17.643 20.5758L11.7504 14.6833C11.1022 14.0351 11.1022 12.9744 11.7504 12.3262C12.3986 11.6781 13.4593 11.6781 14.1074 12.3262L20 18.2188L25.8926 12.3262C26.5407 11.6781 27.6014 11.6781 28.2496 12.3262C28.8978 12.9744 28.8978 14.0351 28.2496 14.6833L22.357 20.5758L28.2496 26.4684C28.8978 27.1166 28.8978 28.1772 28.2496 28.8254C27.6014 29.4736 26.5407 29.4736 25.8926 28.8254Z" fill="black"/>
</svg>
